<svg width="150" height="150" viewBox="0 0 150 150" fill="none" xmlns="http://www.w3.org/2000/svg">
<rect width="150" height="150" rx="75" fill="#8C004A"/>
<path d="M48.7958 68.624C48.7958 68.7733 48.7424 68.9013 48.6358 69.008C48.5291 69.0933 48.4011 69.136 48.2518 69.136C48.1664 69.136 48.0598 69.1253 47.9318 69.104C47.8251 69.0827 47.7504 69.0293 47.7078 68.944C47.7078 68.9227 47.6758 68.784 47.6118 68.528C47.5691 68.2507 47.5051 67.9307 47.4198 67.568C47.3558 67.2053 47.2811 66.864 47.1958 66.544C47.1318 66.224 47.0784 66 47.0358 65.872C46.9504 65.5733 46.8331 65.296 46.6838 65.04C46.5558 64.7627 46.3851 64.5067 46.1718 64.272C45.9798 64.0587 45.6171 63.9093 45.0838 63.824C44.5718 63.7387 44.0384 63.696 43.4838 63.696C42.9504 63.6747 42.5451 63.664 42.2678 63.664C41.9691 63.664 41.6171 63.6747 41.2118 63.696C40.8278 63.7173 40.4864 63.8133 40.1878 63.984C39.9104 64.1333 39.7718 64.432 39.7718 64.88C39.7718 68.1013 39.7718 71.3227 39.7718 74.544C39.7931 77.7653 39.8038 80.9867 39.8038 84.208C39.8038 84.464 39.9104 84.6667 40.1238 84.816C40.3371 84.944 40.5824 85.0293 40.8598 85.072C41.1371 85.1147 41.3718 85.136 41.5638 85.136C41.7131 85.136 41.8518 85.1253 41.9798 85.104C42.1291 85.0827 42.2784 85.072 42.4278 85.072C42.7691 85.072 42.9398 85.2427 42.9398 85.584C42.9398 85.6907 42.9078 85.808 42.8438 85.936C42.7798 86.064 42.6731 86.128 42.5238 86.128C41.7771 86.128 41.0198 86.1067 40.2518 86.064C39.4838 86.0213 38.7158 86 37.9478 86C36.9024 86 35.8678 86.032 34.8438 86.096C34.5878 86.1173 34.3318 86.1387 34.0758 86.16C33.8198 86.1813 33.5744 86.192 33.3398 86.192C32.9984 86.192 32.8278 86.0427 32.8278 85.744C32.8278 85.5733 32.8704 85.424 32.9558 85.296C33.0624 85.168 33.2118 85.104 33.4038 85.104C33.4891 85.104 33.5638 85.1147 33.6278 85.136C33.7131 85.136 33.7984 85.136 33.8838 85.136C34.0971 85.136 34.3638 85.1253 34.6838 85.104C35.0038 85.0613 35.2918 84.976 35.5478 84.848C35.8251 84.6987 35.9638 84.4853 35.9638 84.208C35.9638 82.5227 35.9638 80.848 35.9638 79.184C35.9851 77.4987 35.9958 75.8133 35.9958 74.128C35.9958 72.5493 35.9851 70.9813 35.9638 69.424C35.9638 67.8453 35.9638 66.2773 35.9638 64.72C35.9638 64.4853 35.8358 64.272 35.5798 64.08C35.3451 63.888 35.1211 63.7813 34.9078 63.76C34.5451 63.696 34.1611 63.6747 33.7558 63.696C33.3718 63.696 32.9984 63.696 32.6358 63.696C31.9958 63.696 31.4304 63.7067 30.9398 63.728C30.4704 63.7493 30.0651 63.888 29.7238 64.144C29.4038 64.4 29.1264 64.8907 28.8918 65.616C28.8278 65.808 28.7424 66.16 28.6358 66.672C28.5504 67.1627 28.4544 67.6427 28.3478 68.112C28.2411 68.56 28.1558 68.8373 28.0918 68.944C28.0278 69.0293 27.9531 69.0827 27.8678 69.104C27.8038 69.1253 27.7184 69.136 27.6118 69.136C27.4411 69.136 27.3024 69.1147 27.1958 69.072C27.1104 69.0293 27.0678 68.912 27.0678 68.72C27.0678 68.4427 27.0891 68.1653 27.1318 67.888C27.1744 67.6107 27.2064 67.3333 27.2278 67.056C27.2704 66.4587 27.3024 65.8613 27.3238 65.264C27.3451 64.6667 27.3558 64.0693 27.3558 63.472C27.3558 63.216 27.3771 62.992 27.4198 62.8C27.4624 62.608 27.6544 62.512 27.9958 62.512C28.2091 62.512 28.4118 62.5333 28.6038 62.576C28.8171 62.5973 29.0304 62.608 29.2438 62.608C29.4144 62.6293 29.5851 62.64 29.7558 62.64C29.9478 62.64 30.1291 62.6507 30.2998 62.672C31.4944 62.6933 32.7531 62.7147 34.0758 62.736C35.4198 62.736 36.6998 62.736 37.9158 62.736C39.1104 62.736 40.3691 62.736 41.6918 62.736C43.0144 62.7147 44.2624 62.6933 45.4358 62.672C45.8411 62.6507 46.2358 62.64 46.6198 62.64C47.0251 62.6187 47.4304 62.608 47.8358 62.608C48.1558 62.608 48.3584 62.6933 48.4438 62.864C48.5504 63.0133 48.5931 63.2053 48.5718 63.44C48.5718 63.6747 48.5718 63.9093 48.5718 64.144C48.5718 64.6773 48.5931 65.2107 48.6358 65.744C48.6784 66.256 48.7104 66.7787 48.7318 67.312C48.7318 67.5253 48.7424 67.7387 48.7638 67.952C48.7851 68.1653 48.7958 68.3893 48.7958 68.624ZM95.9395 79.92C95.9395 80.1547 95.8755 80.3893 95.7475 80.624C95.4488 81.3067 95.0008 81.9573 94.4035 82.576C93.8275 83.1947 93.2302 83.7067 92.6115 84.112C91.6302 84.752 90.5848 85.2107 89.4755 85.488C88.3875 85.744 87.2568 85.872 86.0835 85.872C83.7795 85.872 81.7848 85.392 80.0995 84.432C78.4142 83.472 77.1128 82.1387 76.1955 80.432C75.2995 78.704 74.8515 76.6987 74.8515 74.416C74.8515 72.1547 75.2888 70.1173 76.1635 68.304C77.0595 66.4907 78.3502 65.0507 80.0355 63.984C81.7208 62.9173 83.7368 62.384 86.0835 62.384C87.0222 62.384 87.8648 62.512 88.6115 62.768C89.3582 63.024 90.1582 63.3013 91.0115 63.6C91.4808 63.7493 91.9502 63.8667 92.4195 63.952C92.9102 64.016 93.4008 64.0693 93.8915 64.112C93.8915 64.5813 93.9128 65.0613 93.9555 65.552C93.9982 66.0213 94.0622 66.4907 94.1475 66.96C94.2115 67.3867 94.2968 67.824 94.4035 68.272C94.5102 68.6987 94.5635 69.136 94.5635 69.584C94.5635 70.3733 94.1582 70.768 93.3475 70.768C93.1555 70.768 93.0168 70.7467 92.9315 70.704C92.8462 70.6613 92.7608 70.5547 92.6755 70.384C92.5902 70.1707 92.5155 69.9467 92.4515 69.712C92.4088 69.456 92.3662 69.2213 92.3235 69.008C92.1528 68.3253 91.8648 67.6 91.4595 66.832C91.0542 66.0427 90.5742 65.4133 90.0195 64.944C89.7635 64.7307 89.3902 64.5173 88.8995 64.304C88.4088 64.0693 87.9075 63.8773 87.3955 63.728C86.9048 63.5573 86.4888 63.472 86.1475 63.472C85.5502 63.472 84.9315 63.6 84.2915 63.856C83.6515 64.0907 83.0862 64.3893 82.5955 64.752C81.6355 65.4773 80.8675 66.3627 80.2915 67.408C79.7368 68.4533 79.3315 69.5733 79.0755 70.768C78.8408 71.9413 78.7235 73.1147 78.7235 74.288C78.7235 75.5253 78.8622 76.752 79.1395 77.968C79.4382 79.184 79.8968 80.2827 80.5155 81.264C81.1555 82.224 81.9768 83.0027 82.9795 83.6C83.9822 84.176 85.1982 84.464 86.6275 84.464C87.2248 84.464 87.8968 84.3787 88.6435 84.208C89.3902 84.016 90.0302 83.8133 90.5635 83.6C91.2035 83.344 91.7902 82.992 92.3235 82.544C92.8782 82.096 93.3795 81.6053 93.8275 81.072C93.9555 80.9227 94.0835 80.7733 94.2115 80.624C94.3395 80.4533 94.4462 80.2827 94.5315 80.112C94.5742 80.0267 94.6168 79.952 94.6595 79.888C94.7022 79.8027 94.7555 79.728 94.8195 79.664C94.9475 79.536 95.1288 79.472 95.3635 79.472C95.4915 79.472 95.6195 79.5147 95.7475 79.6C95.8755 79.664 95.9395 79.7707 95.9395 79.92ZM122.647 62.928C122.647 63.184 122.53 63.344 122.295 63.408C122.06 63.472 121.794 63.4933 121.495 63.472C121.196 63.4507 120.951 63.44 120.759 63.44C120.546 63.44 120.311 63.504 120.055 63.632C119.82 63.76 119.703 63.952 119.703 64.208V84.336C119.703 84.6133 119.82 84.816 120.055 84.944C120.311 85.0507 120.546 85.104 120.759 85.104C120.994 85.104 121.218 85.0933 121.431 85.072C121.666 85.0507 121.89 85.04 122.103 85.04C122.423 85.04 122.583 85.1787 122.583 85.456C122.583 85.6053 122.562 85.7547 122.519 85.904C122.476 86.032 122.37 86.096 122.199 86.096C121.943 86.096 121.687 86.0853 121.431 86.064C121.196 86.0427 120.951 86.032 120.695 86.032C119.714 85.968 118.7 85.936 117.655 85.936C116.802 85.936 115.938 85.968 115.063 86.032C114.786 86.0533 114.508 86.0747 114.231 86.096C113.975 86.1387 113.698 86.16 113.399 86.16C113.228 86.16 113.122 86.1067 113.079 86C113.036 85.872 113.015 85.7333 113.015 85.584C113.015 85.456 113.047 85.3387 113.111 85.232C113.175 85.1253 113.282 85.072 113.431 85.072C113.687 85.072 113.932 85.0827 114.167 85.104C114.423 85.104 114.668 85.104 114.903 85.104C115.138 85.104 115.383 85.0507 115.639 84.944C115.895 84.816 116.023 84.6133 116.023 84.336V74.16H103.575V84.304C103.575 84.5813 103.692 84.784 103.927 84.912C104.183 85.0187 104.418 85.072 104.631 85.072C104.866 85.072 105.1 85.0613 105.335 85.04C105.57 85.0187 105.794 85.008 106.007 85.008C106.327 85.008 106.487 85.1467 106.487 85.424C106.487 85.6373 106.466 85.776 106.423 85.84C106.402 85.8827 106.306 85.9573 106.135 86.064C105.388 86.0213 104.631 85.9893 103.863 85.968C103.095 85.9253 102.338 85.904 101.591 85.904C100.738 85.904 99.8737 85.936 98.999 86C98.7217 86.0213 98.4443 86.0427 98.167 86.064C97.911 86.1067 97.6443 86.128 97.367 86.128C97.175 86.128 97.0577 86.0747 97.015 85.968C96.9723 85.84 96.951 85.7013 96.951 85.552C96.951 85.424 96.9937 85.3067 97.079 85.2C97.1643 85.0933 97.271 85.04 97.399 85.04C97.6337 85.04 97.8683 85.0507 98.103 85.072C98.359 85.072 98.6043 85.072 98.839 85.072C99.0737 85.072 99.319 85.0187 99.575 84.912C99.831 84.784 99.959 84.5813 99.959 84.304C99.959 82.4693 99.959 80.6347 99.959 78.8C99.9803 76.944 99.991 75.088 99.991 73.232C99.991 71.7173 99.9803 70.2133 99.959 68.72C99.959 67.2267 99.959 65.7333 99.959 64.24C99.959 63.9627 99.831 63.7707 99.575 63.664C99.319 63.536 99.0737 63.472 98.839 63.472C98.6043 63.472 98.359 63.4827 98.103 63.504C97.8683 63.504 97.6337 63.504 97.399 63.504C97.079 63.504 96.919 63.3547 96.919 63.056C96.919 62.928 96.951 62.7893 97.015 62.64C97.079 62.4907 97.1963 62.416 97.367 62.416C97.6443 62.416 97.911 62.4373 98.167 62.48C98.4443 62.5013 98.7217 62.5227 98.999 62.544C99.8737 62.608 100.738 62.64 101.591 62.64C102.338 62.64 103.084 62.6187 103.831 62.576C104.578 62.512 105.324 62.48 106.071 62.48C106.284 62.48 106.412 62.5227 106.455 62.608C106.498 62.672 106.519 62.8 106.519 62.992C106.519 63.3547 106.338 63.536 105.975 63.536C105.762 63.536 105.538 63.5253 105.303 63.504C105.09 63.4827 104.866 63.472 104.631 63.472C104.418 63.472 104.183 63.536 103.927 63.664C103.692 63.792 103.575 63.984 103.575 64.24V72.944H116.023C116.023 71.5573 116.023 70.1813 116.023 68.816C116.023 67.4293 116.023 66.0427 116.023 64.656C116.023 64.2293 115.948 63.92 115.799 63.728C115.65 63.536 115.351 63.44 114.903 63.44C114.668 63.44 114.423 63.4507 114.167 63.472C113.932 63.472 113.687 63.472 113.431 63.472C113.303 63.472 113.196 63.4187 113.111 63.312C113.047 63.184 113.015 63.056 113.015 62.928C113.015 62.8 113.036 62.6827 113.079 62.576C113.122 62.448 113.228 62.384 113.399 62.384C113.698 62.384 113.975 62.4053 114.231 62.448C114.508 62.4693 114.786 62.4907 115.063 62.512C115.426 62.5333 115.778 62.5547 116.119 62.576C116.482 62.576 116.844 62.576 117.207 62.576H117.655C118.167 62.576 118.679 62.576 119.191 62.576C119.703 62.5547 120.215 62.5333 120.727 62.512C120.962 62.4907 121.207 62.4693 121.463 62.448C121.719 62.4267 121.964 62.416 122.199 62.416C122.498 62.416 122.647 62.5867 122.647 62.928ZM45.3513 95.68H43.2473V95.176H45.3513V95.68ZM52.4664 92.232C52.4664 92.296 52.4371 92.336 52.3784 92.352C52.3198 92.368 52.2531 92.3733 52.1784 92.368C52.1038 92.3627 52.0424 92.36 51.9944 92.36C51.9411 92.36 51.8824 92.376 51.8184 92.408C51.7598 92.44 51.7304 92.488 51.7304 92.552V97.584C51.7304 97.6533 51.7598 97.704 51.8184 97.736C51.8824 97.7627 51.9411 97.776 51.9944 97.776C52.0531 97.776 52.1091 97.7733 52.1624 97.768C52.2211 97.7627 52.2771 97.76 52.3304 97.76C52.4104 97.76 52.4504 97.7947 52.4504 97.864C52.4504 97.9013 52.4451 97.9387 52.4344 97.976C52.4238 98.008 52.3971 98.024 52.3544 98.024C52.2904 98.024 52.2264 98.0213 52.1624 98.016C52.1038 98.0107 52.0424 98.008 51.9784 98.008C51.7331 97.992 51.4798 97.984 51.2184 97.984C51.0051 97.984 50.7891 97.992 50.5704 98.008C50.5011 98.0133 50.4318 98.0187 50.3624 98.024C50.2984 98.0347 50.2291 98.04 50.1544 98.04C50.1118 98.04 50.0851 98.0267 50.0744 98C50.0638 97.968 50.0584 97.9333 50.0584 97.896C50.0584 97.864 50.0664 97.8347 50.0824 97.808C50.0984 97.7813 50.1251 97.768 50.1624 97.768C50.2264 97.768 50.2878 97.7707 50.3464 97.776C50.4104 97.776 50.4718 97.776 50.5304 97.776C50.5891 97.776 50.6504 97.7627 50.7144 97.736C50.7784 97.704 50.8104 97.6533 50.8104 97.584V95.04H47.6984V97.576C47.6984 97.6453 47.7278 97.696 47.7864 97.728C47.8504 97.7547 47.9091 97.768 47.9624 97.768C48.0211 97.768 48.0798 97.7653 48.1384 97.76C48.1971 97.7547 48.2531 97.752 48.3064 97.752C48.3864 97.752 48.4264 97.7867 48.4264 97.856C48.4264 97.9093 48.4211 97.944 48.4104 97.96C48.4051 97.9707 48.3811 97.9893 48.3384 98.016C48.1518 98.0053 47.9624 97.9973 47.7704 97.992C47.5784 97.9813 47.3891 97.976 47.2024 97.976C46.9891 97.976 46.7731 97.984 46.5544 98C46.4851 98.0053 46.4158 98.0107 46.3464 98.016C46.2824 98.0267 46.2158 98.032 46.1464 98.032C46.0984 98.032 46.0691 98.0187 46.0584 97.992C46.0478 97.96 46.0424 97.9253 46.0424 97.888C46.0424 97.856 46.0531 97.8267 46.0744 97.8C46.0958 97.7733 46.1224 97.76 46.1544 97.76C46.2131 97.76 46.2718 97.7627 46.3304 97.768C46.3944 97.768 46.4558 97.768 46.5144 97.768C46.5731 97.768 46.6344 97.7547 46.6984 97.728C46.7624 97.696 46.7944 97.6453 46.7944 97.576C46.7944 97.1173 46.7944 96.6587 46.7944 96.2C46.7998 95.736 46.8024 95.272 46.8024 94.808C46.8024 94.4293 46.7998 94.0533 46.7944 93.68C46.7944 93.3067 46.7944 92.9333 46.7944 92.56C46.7944 92.4907 46.7624 92.4427 46.6984 92.416C46.6344 92.384 46.5731 92.368 46.5144 92.368C46.4558 92.368 46.3944 92.3707 46.3304 92.376C46.2718 92.376 46.2131 92.376 46.1544 92.376C46.0744 92.376 46.0344 92.3387 46.0344 92.264C46.0344 92.232 46.0424 92.1973 46.0584 92.16C46.0744 92.1227 46.1038 92.104 46.1464 92.104C46.2158 92.104 46.2824 92.1093 46.3464 92.12C46.4158 92.1253 46.4851 92.1307 46.5544 92.136C46.7731 92.152 46.9891 92.16 47.2024 92.16C47.3891 92.16 47.5758 92.1547 47.7624 92.144C47.9491 92.128 48.1358 92.12 48.3224 92.12C48.3758 92.12 48.4078 92.1307 48.4184 92.152C48.4291 92.168 48.4344 92.2 48.4344 92.248C48.4344 92.3387 48.3891 92.384 48.2984 92.384C48.2451 92.384 48.1891 92.3813 48.1304 92.376C48.0771 92.3707 48.0211 92.368 47.9624 92.368C47.9091 92.368 47.8504 92.384 47.7864 92.416C47.7278 92.448 47.6984 92.496 47.6984 92.56V94.736H50.8104C50.8104 94.3893 50.8104 94.0453 50.8104 93.704C50.8104 93.3573 50.8104 93.0107 50.8104 92.664C50.8104 92.5573 50.7918 92.48 50.7544 92.432C50.7171 92.384 50.6424 92.36 50.5304 92.36C50.4718 92.36 50.4104 92.3627 50.3464 92.368C50.2878 92.368 50.2264 92.368 50.1624 92.368C50.1304 92.368 50.1038 92.3547 50.0824 92.328C50.0664 92.296 50.0584 92.264 50.0584 92.232C50.0584 92.2 50.0638 92.1707 50.0744 92.144C50.0851 92.112 50.1118 92.096 50.1544 92.096C50.2291 92.096 50.2984 92.1013 50.3624 92.112C50.4318 92.1173 50.5011 92.1227 50.5704 92.128C50.6611 92.1333 50.7491 92.1387 50.8344 92.144C50.9251 92.144 51.0158 92.144 51.1064 92.144H51.2184C51.3464 92.144 51.4744 92.144 51.6024 92.144C51.7304 92.1387 51.8584 92.1333 51.9864 92.128C52.0451 92.1227 52.1064 92.1173 52.1704 92.112C52.2344 92.1067 52.2958 92.104 52.3544 92.104C52.4291 92.104 52.4664 92.1467 52.4664 92.232ZM57.7218 95.024C57.7218 94.7307 57.6898 94.4293 57.6258 94.12C57.5618 93.8107 57.4578 93.5253 57.3138 93.264C57.1698 92.9973 56.9778 92.7813 56.7378 92.616C56.4978 92.4507 56.2018 92.368 55.8498 92.368C55.5031 92.368 55.2098 92.4533 54.9698 92.624C54.7298 92.7947 54.5351 93.016 54.3858 93.288C54.2418 93.56 54.1378 93.8533 54.0738 94.168C54.0098 94.4773 53.9778 94.776 53.9778 95.064C53.9778 95.3627 54.0071 95.6693 54.0658 95.984C54.1244 96.2987 54.2231 96.5893 54.3618 96.856C54.5058 97.1227 54.6978 97.3387 54.9378 97.504C55.1831 97.6693 55.4871 97.752 55.8498 97.752C56.2178 97.752 56.5218 97.6693 56.7618 97.504C57.0018 97.3333 57.1911 97.112 57.3298 96.84C57.4738 96.568 57.5751 96.272 57.6338 95.952C57.6924 95.632 57.7218 95.3227 57.7218 95.024ZM58.7058 94.984C58.7058 95.576 58.5964 96.1013 58.3778 96.56C58.1591 97.0187 57.8364 97.3787 57.4098 97.64C56.9884 97.9013 56.4684 98.032 55.8498 98.032C55.2524 98.032 54.7404 97.9067 54.3138 97.656C53.8871 97.4053 53.5591 97.056 53.3298 96.608C53.1058 96.16 52.9938 95.6427 52.9938 95.056C52.9938 94.64 53.0604 94.2533 53.1938 93.896C53.3324 93.5333 53.5271 93.216 53.7778 92.944C54.0338 92.6667 54.3351 92.4507 54.6818 92.296C55.0338 92.1413 55.4231 92.064 55.8498 92.064C56.4471 92.064 56.9591 92.1867 57.3858 92.432C57.8124 92.672 58.1378 93.0107 58.3618 93.448C58.5911 93.8853 58.7058 94.3973 58.7058 94.984ZM66.6843 97.88C66.6843 97.9173 66.6683 97.9467 66.6363 97.968C66.6043 97.9893 66.5696 98 66.5323 98C66.3509 98 66.1669 98 65.9803 98C65.7936 97.9947 65.6069 97.992 65.4203 97.992C65.3243 97.992 65.2256 97.992 65.1243 97.992C65.0283 97.992 64.9323 97.9947 64.8363 98C64.7456 98.0053 64.6549 98.0107 64.5643 98.016C64.4736 98.0213 64.3829 98.024 64.2923 98.024C64.1909 98.024 64.1403 97.9707 64.1403 97.864C64.1403 97.8107 64.1536 97.7787 64.1803 97.768C64.2123 97.752 64.2496 97.744 64.2923 97.744C64.3349 97.744 64.3776 97.7467 64.4203 97.752C64.4683 97.752 64.5136 97.752 64.5563 97.752C64.6843 97.752 64.7723 97.7413 64.8203 97.72C64.8736 97.6933 64.9029 97.6507 64.9083 97.592C64.9136 97.528 64.9163 97.44 64.9163 97.328V92.656C64.7189 93.1787 64.5163 93.7013 64.3083 94.224C64.1056 94.7467 63.8976 95.2693 63.6843 95.792C63.5936 96.0107 63.5029 96.2293 63.4123 96.448C63.3216 96.6613 63.2309 96.8773 63.1403 97.096C63.1029 97.192 63.0656 97.2907 63.0283 97.392C62.9909 97.488 62.9483 97.5813 62.9003 97.672C62.8789 97.7093 62.8469 97.736 62.8043 97.752C62.7669 97.768 62.7269 97.776 62.6843 97.776C62.6416 97.776 62.5989 97.768 62.5563 97.752C62.5189 97.736 62.4896 97.7093 62.4683 97.672C62.4309 97.5867 62.3936 97.504 62.3563 97.424C62.3189 97.3387 62.2816 97.2533 62.2443 97.168C62.1643 96.9867 62.0843 96.808 62.0043 96.632C61.9296 96.4507 61.8549 96.272 61.7803 96.096C61.5509 95.552 61.3243 95.008 61.1003 94.464C60.8763 93.9147 60.6496 93.368 60.4203 92.824C60.4203 93.6133 60.4203 94.4027 60.4203 95.192C60.4256 95.9813 60.4283 96.7707 60.4283 97.56C60.4283 97.6507 60.4603 97.7067 60.5243 97.728C60.5883 97.744 60.6549 97.752 60.7243 97.752C60.7883 97.752 60.8523 97.7493 60.9163 97.744C60.9803 97.7387 61.0416 97.736 61.1003 97.736C61.1323 97.736 61.1536 97.752 61.1643 97.784C61.1803 97.816 61.1883 97.8453 61.1883 97.872C61.1883 97.8987 61.1776 97.928 61.1562 97.96C61.1349 97.9867 61.1083 98 61.0763 98C60.9323 98 60.7856 97.9973 60.6363 97.992C60.4923 97.9813 60.3483 97.976 60.2043 97.976C60.0816 97.976 59.9563 97.9813 59.8283 97.992C59.7003 98.0027 59.5749 98.008 59.4523 98.008C59.3989 98.008 59.3563 98.0027 59.3243 97.992C59.2976 97.9813 59.2843 97.9387 59.2843 97.864C59.2843 97.7893 59.3296 97.752 59.4202 97.752C59.4576 97.752 59.4949 97.7547 59.5323 97.76C59.5749 97.7653 59.6149 97.768 59.6523 97.768C59.7269 97.768 59.8096 97.76 59.9003 97.744C59.9909 97.7227 60.0389 97.6613 60.0443 97.56C60.0496 97.4693 60.0496 97.376 60.0443 97.28C60.0443 97.1787 60.0443 97.08 60.0443 96.984C60.0443 96.8187 60.0443 96.656 60.0443 96.496C60.0443 96.3307 60.0443 96.1653 60.0443 96C60.0443 95.4347 60.0469 94.8693 60.0523 94.304C60.0576 93.7333 60.0603 93.1653 60.0603 92.6C60.0603 92.5093 60.0203 92.448 59.9403 92.416C59.8603 92.384 59.7829 92.368 59.7083 92.368C59.6603 92.368 59.6123 92.3733 59.5643 92.384C59.5163 92.3893 59.4683 92.392 59.4202 92.392C59.3829 92.392 59.3509 92.376 59.3243 92.344C59.3029 92.312 59.2923 92.28 59.2923 92.248C59.2923 92.1573 59.3376 92.112 59.4283 92.112C59.4923 92.112 59.5563 92.1147 59.6203 92.12C59.6843 92.1253 59.7483 92.128 59.8123 92.128C59.9243 92.1333 60.0363 92.1387 60.1483 92.144C60.2603 92.144 60.3723 92.144 60.4843 92.144C60.5909 92.144 60.6976 92.1413 60.8043 92.136C60.9163 92.1253 61.0229 92.1173 61.1243 92.112L62.9803 96.536C63.2683 95.7947 63.5696 95.0587 63.8843 94.328C64.1989 93.5973 64.4896 92.8587 64.7563 92.112C64.8949 92.112 65.0336 92.1147 65.1723 92.12C65.3163 92.12 65.4576 92.12 65.5963 92.12C65.7509 92.12 65.9083 92.1147 66.0683 92.104C66.2283 92.0933 66.3856 92.088 66.5403 92.088C66.5776 92.088 66.6069 92.104 66.6283 92.136C66.6496 92.1627 66.6603 92.192 66.6603 92.224C66.6603 92.256 66.6496 92.288 66.6283 92.32C66.6069 92.352 66.5776 92.368 66.5403 92.368C66.4763 92.368 66.4123 92.3653 66.3483 92.36C66.2843 92.3547 66.2176 92.352 66.1483 92.352C66.0949 92.352 66.0256 92.368 65.9403 92.4C65.8603 92.4267 65.8203 92.4747 65.8203 92.544C65.8203 92.9547 65.8203 93.3653 65.8203 93.776C65.8203 94.1867 65.8203 94.5973 65.8203 95.008C65.8203 95.3813 65.8203 95.7573 65.8203 96.136C65.8203 96.5093 65.8203 96.8853 65.8203 97.264C65.8203 97.312 65.8203 97.376 65.8203 97.456C65.8203 97.536 65.8309 97.5973 65.8523 97.64C65.8789 97.6933 65.9216 97.7253 65.9803 97.736C66.0443 97.7413 66.1003 97.744 66.1483 97.744C66.2176 97.744 66.2843 97.744 66.3483 97.744C66.4176 97.7387 66.4843 97.736 66.5483 97.736C66.6389 97.736 66.6843 97.784 66.6843 97.88ZM71.9264 96.608C71.9264 96.704 71.9157 96.8027 71.8944 96.904C71.8784 97 71.8624 97.096 71.8464 97.192C71.8357 97.2987 71.8277 97.408 71.8224 97.52C71.817 97.6267 71.801 97.7333 71.7744 97.84C71.769 97.8773 71.7477 97.912 71.7104 97.944C71.6784 97.976 71.641 97.992 71.5984 97.992C71.0277 97.992 70.457 97.9893 69.8864 97.984C69.3157 97.9733 68.745 97.968 68.1744 97.968C67.9984 97.968 67.8224 97.976 67.6464 97.992C67.4757 98.0027 67.305 98.008 67.1344 98.008C67.1024 98.008 67.0677 98 67.0304 97.984C66.993 97.9627 66.9744 97.9333 66.9744 97.896C66.9744 97.8267 67.001 97.7813 67.0544 97.76C67.1077 97.7387 67.1717 97.728 67.2464 97.728C67.3264 97.728 67.4037 97.7227 67.4784 97.712C67.553 97.7013 67.617 97.6693 67.6704 97.616C67.7237 97.5573 67.7504 97.4613 67.7504 97.328L67.7424 92.776C67.7424 92.6533 67.7077 92.576 67.6384 92.544C67.569 92.5067 67.4837 92.488 67.3824 92.488C67.3397 92.488 67.2944 92.4907 67.2464 92.496C67.2037 92.496 67.161 92.496 67.1184 92.496C67.065 92.496 67.017 92.4853 66.9744 92.464C66.9317 92.4427 66.9104 92.4027 66.9104 92.344C66.9104 92.2267 66.9664 92.168 67.0784 92.168C67.169 92.168 67.2597 92.1707 67.3504 92.176C67.441 92.1813 67.5317 92.184 67.6224 92.184C68.161 92.184 68.697 92.1813 69.2304 92.176C69.769 92.1653 70.3077 92.16 70.8464 92.16C71.1024 92.16 71.3584 92.152 71.6144 92.136C71.6357 92.2907 71.6624 92.448 71.6944 92.608C71.7264 92.7627 71.753 92.92 71.7744 93.08C71.785 93.1067 71.793 93.136 71.7984 93.168C71.8037 93.2 71.8064 93.2293 71.8064 93.256C71.8064 93.32 71.7824 93.3653 71.7344 93.392C71.6917 93.4133 71.641 93.424 71.5824 93.424C71.529 93.424 71.489 93.416 71.4624 93.4C71.4357 93.3787 71.4117 93.3413 71.3904 93.288C71.2997 92.9787 71.1717 92.7627 71.0064 92.64C70.841 92.5173 70.5957 92.456 70.2704 92.456H68.6544V94.808C68.857 94.8027 69.057 94.8 69.2544 94.8C69.4517 94.7947 69.649 94.7867 69.8464 94.776C70.0544 94.7653 70.257 94.7467 70.4544 94.72C70.6517 94.688 70.8517 94.6533 71.0544 94.616C71.0597 94.616 71.0624 94.616 71.0624 94.616C71.0677 94.616 71.073 94.616 71.0784 94.616C71.0944 94.616 71.1157 94.6213 71.1424 94.632C71.1744 94.6427 71.1904 94.6587 71.1904 94.68C71.1904 94.7173 71.1717 94.784 71.1344 94.88C71.1024 94.976 71.0784 95.04 71.0624 95.072C71.025 95.1413 70.969 95.176 70.8944 95.176C70.8517 95.176 70.8064 95.176 70.7584 95.176C70.7157 95.1707 70.673 95.1653 70.6304 95.16C70.5344 95.1493 70.4384 95.1413 70.3424 95.136C70.2464 95.1307 70.1504 95.1253 70.0544 95.12C69.921 95.12 69.7904 95.12 69.6624 95.12C69.5344 95.12 69.4037 95.12 69.2704 95.12C69.1957 95.12 69.1077 95.1253 69.0064 95.136C68.9104 95.1467 68.8277 95.176 68.7584 95.224C68.689 95.272 68.6544 95.3493 68.6544 95.456V97.368C68.6544 97.5227 68.6864 97.6187 68.7504 97.656C68.8197 97.688 68.921 97.704 69.0544 97.704H69.7504C69.8944 97.704 70.0544 97.696 70.2304 97.68C70.4117 97.664 70.585 97.632 70.7504 97.584C70.921 97.536 71.0597 97.4613 71.1664 97.36C71.2784 97.2533 71.3637 97.1307 71.4224 96.992C71.4864 96.8533 71.5504 96.7173 71.6144 96.584C71.641 96.5253 71.6944 96.496 71.7744 96.496C71.8117 96.496 71.8464 96.504 71.8784 96.52C71.9104 96.536 71.9264 96.5653 71.9264 96.608ZM79.349 94.976C79.349 94.7573 79.3277 94.5253 79.285 94.28C79.2423 94.0293 79.173 93.7893 79.077 93.56C78.981 93.3307 78.853 93.1387 78.693 92.984C78.549 92.84 78.3757 92.7173 78.173 92.616C77.9757 92.5093 77.7757 92.4453 77.573 92.424C77.5143 92.4133 77.453 92.408 77.389 92.408C77.325 92.408 77.261 92.408 77.197 92.408C76.813 92.408 76.4237 92.416 76.029 92.432V97.32C76.029 97.4693 76.0743 97.568 76.165 97.616C76.261 97.664 76.373 97.688 76.501 97.688C76.709 97.688 76.9223 97.68 77.141 97.664C77.3597 97.648 77.573 97.6107 77.781 97.552C77.989 97.4933 78.1783 97.4 78.349 97.272C78.717 97 78.9757 96.6587 79.125 96.248C79.2743 95.8373 79.349 95.4133 79.349 94.976ZM80.333 94.864C80.333 95.392 80.221 95.8933 79.997 96.368C79.773 96.8373 79.4317 97.2133 78.973 97.496C78.7863 97.6133 78.5677 97.7093 78.317 97.784C78.0717 97.8533 77.821 97.9067 77.565 97.944C77.309 97.976 77.069 97.992 76.845 97.992C76.6583 97.992 76.469 97.9867 76.277 97.976C76.085 97.96 75.893 97.952 75.701 97.952C75.5463 97.952 75.389 97.9547 75.229 97.96C75.0743 97.9653 74.9197 97.9733 74.765 97.984C74.7383 97.984 74.709 97.9867 74.677 97.992C74.6503 97.992 74.6237 97.992 74.597 97.992C74.5597 97.992 74.5303 97.9787 74.509 97.952C74.4877 97.92 74.477 97.888 74.477 97.856C74.477 97.8187 74.5037 97.792 74.557 97.776C74.6157 97.76 74.6797 97.7467 74.749 97.736C74.8183 97.72 74.8663 97.704 74.893 97.688C74.9837 97.6453 75.0423 97.5787 75.069 97.488C75.101 97.392 75.117 97.2987 75.117 97.208C75.117 96.9147 75.117 96.6213 75.117 96.328C75.1223 96.0347 75.125 95.7413 75.125 95.448C75.125 95.1013 75.1223 94.7573 75.117 94.416C75.117 94.0693 75.117 93.7253 75.117 93.384C75.117 93.2827 75.1197 93.1813 75.125 93.08C75.1303 92.9787 75.1277 92.8773 75.117 92.776C75.1117 92.7013 75.093 92.6347 75.061 92.576C75.0343 92.512 74.9783 92.4693 74.893 92.448C74.8343 92.4373 74.765 92.4347 74.685 92.44C74.6103 92.44 74.541 92.44 74.477 92.44C74.4343 92.44 74.3917 92.4293 74.349 92.408C74.3117 92.3867 74.293 92.3493 74.293 92.296C74.293 92.2 74.349 92.152 74.461 92.152C74.5837 92.152 74.7063 92.1573 74.829 92.168C74.9517 92.1787 75.0743 92.184 75.197 92.184C75.5917 92.184 75.9837 92.1707 76.373 92.144C76.7677 92.1173 77.1597 92.104 77.549 92.104C78.125 92.104 78.621 92.216 79.037 92.44C79.453 92.6587 79.773 92.9733 79.997 93.384C80.221 93.7947 80.333 94.288 80.333 94.864ZM85.8873 96.608C85.8873 96.704 85.8766 96.8027 85.8553 96.904C85.8393 97 85.8233 97.096 85.8073 97.192C85.7966 97.2987 85.7886 97.408 85.7833 97.52C85.778 97.6267 85.762 97.7333 85.7353 97.84C85.73 97.8773 85.7086 97.912 85.6713 97.944C85.6393 97.976 85.602 97.992 85.5593 97.992C84.9886 97.992 84.418 97.9893 83.8473 97.984C83.2766 97.9733 82.706 97.968 82.1353 97.968C81.9593 97.968 81.7833 97.976 81.6073 97.992C81.4366 98.0027 81.266 98.008 81.0953 98.008C81.0633 98.008 81.0286 98 80.9913 97.984C80.954 97.9627 80.9353 97.9333 80.9353 97.896C80.9353 97.8267 80.962 97.7813 81.0153 97.76C81.0686 97.7387 81.1326 97.728 81.2073 97.728C81.2873 97.728 81.3646 97.7227 81.4393 97.712C81.514 97.7013 81.578 97.6693 81.6313 97.616C81.6846 97.5573 81.7113 97.4613 81.7113 97.328L81.7033 92.776C81.7033 92.6533 81.6686 92.576 81.5993 92.544C81.53 92.5067 81.4446 92.488 81.3433 92.488C81.3006 92.488 81.2553 92.4907 81.2073 92.496C81.1646 92.496 81.122 92.496 81.0793 92.496C81.026 92.496 80.978 92.4853 80.9353 92.464C80.8926 92.4427 80.8713 92.4027 80.8713 92.344C80.8713 92.2267 80.9273 92.168 81.0393 92.168C81.13 92.168 81.2206 92.1707 81.3113 92.176C81.402 92.1813 81.4926 92.184 81.5833 92.184C82.122 92.184 82.658 92.1813 83.1913 92.176C83.73 92.1653 84.2686 92.16 84.8073 92.16C85.0633 92.16 85.3193 92.152 85.5753 92.136C85.5966 92.2907 85.6233 92.448 85.6553 92.608C85.6873 92.7627 85.714 92.92 85.7353 93.08C85.746 93.1067 85.754 93.136 85.7593 93.168C85.7646 93.2 85.7673 93.2293 85.7673 93.256C85.7673 93.32 85.7433 93.3653 85.6953 93.392C85.6526 93.4133 85.602 93.424 85.5433 93.424C85.49 93.424 85.45 93.416 85.4233 93.4C85.3966 93.3787 85.3726 93.3413 85.3513 93.288C85.2606 92.9787 85.1326 92.7627 84.9673 92.64C84.802 92.5173 84.5566 92.456 84.2313 92.456H82.6153V94.808C82.818 94.8027 83.018 94.8 83.2153 94.8C83.4126 94.7947 83.61 94.7867 83.8073 94.776C84.0153 94.7653 84.218 94.7467 84.4153 94.72C84.6126 94.688 84.8126 94.6533 85.0153 94.616C85.0206 94.616 85.0233 94.616 85.0233 94.616C85.0286 94.616 85.034 94.616 85.0393 94.616C85.0553 94.616 85.0766 94.6213 85.1033 94.632C85.1353 94.6427 85.1513 94.6587 85.1513 94.68C85.1513 94.7173 85.1326 94.784 85.0953 94.88C85.0633 94.976 85.0393 95.04 85.0233 95.072C84.986 95.1413 84.93 95.176 84.8553 95.176C84.8126 95.176 84.7673 95.176 84.7193 95.176C84.6766 95.1707 84.634 95.1653 84.5913 95.16C84.4953 95.1493 84.3993 95.1413 84.3033 95.136C84.2073 95.1307 84.1113 95.1253 84.0153 95.12C83.882 95.12 83.7513 95.12 83.6233 95.12C83.4953 95.12 83.3646 95.12 83.2313 95.12C83.1566 95.12 83.0686 95.1253 82.9673 95.136C82.8713 95.1467 82.7886 95.176 82.7193 95.224C82.65 95.272 82.6153 95.3493 82.6153 95.456V97.368C82.6153 97.5227 82.6473 97.6187 82.7113 97.656C82.7806 97.688 82.882 97.704 83.0153 97.704H83.7113C83.8553 97.704 84.0153 97.696 84.1913 97.68C84.3726 97.664 84.546 97.632 84.7113 97.584C84.882 97.536 85.0206 97.4613 85.1273 97.36C85.2393 97.2533 85.3246 97.1307 85.3833 96.992C85.4473 96.8533 85.5113 96.7173 85.5753 96.584C85.602 96.5253 85.6553 96.496 85.7353 96.496C85.7726 96.496 85.8073 96.504 85.8393 96.52C85.8713 96.536 85.8873 96.5653 85.8873 96.608ZM91.7739 96.48C91.7739 96.5387 91.7579 96.5973 91.7259 96.656C91.6513 96.8267 91.5393 96.9893 91.3899 97.144C91.2459 97.2987 91.0966 97.4267 90.9419 97.528C90.6966 97.688 90.4353 97.8027 90.1579 97.872C89.8859 97.936 89.6033 97.968 89.3099 97.968C88.7339 97.968 88.2353 97.848 87.8139 97.608C87.3926 97.368 87.0673 97.0347 86.8379 96.608C86.6139 96.176 86.5019 95.6747 86.5019 95.104C86.5019 94.5387 86.6113 94.0293 86.8299 93.576C87.0539 93.1227 87.3766 92.7627 87.7979 92.496C88.2193 92.2293 88.7233 92.096 89.3099 92.096C89.5446 92.096 89.7553 92.128 89.9419 92.192C90.1286 92.256 90.3286 92.3253 90.5419 92.4C90.6593 92.4373 90.7766 92.4667 90.8939 92.488C91.0166 92.504 91.1393 92.5173 91.2619 92.528C91.2619 92.6453 91.2673 92.7653 91.2779 92.888C91.2886 93.0053 91.3046 93.1227 91.3259 93.24C91.3419 93.3467 91.3633 93.456 91.3899 93.568C91.4166 93.6747 91.4299 93.784 91.4299 93.896C91.4299 94.0933 91.3286 94.192 91.1259 94.192C91.0779 94.192 91.0433 94.1867 91.0219 94.176C91.0006 94.1653 90.9793 94.1387 90.9579 94.096C90.9366 94.0427 90.9179 93.9867 90.9019 93.928C90.8913 93.864 90.8806 93.8053 90.8699 93.752C90.8273 93.5813 90.7553 93.4 90.6539 93.208C90.5526 93.0107 90.4326 92.8533 90.2939 92.736C90.2299 92.6827 90.1366 92.6293 90.0139 92.576C89.8913 92.5173 89.7659 92.4693 89.6379 92.432C89.5153 92.3893 89.4113 92.368 89.3259 92.368C89.1766 92.368 89.0219 92.4 88.8619 92.464C88.7019 92.5227 88.5606 92.5973 88.4379 92.688C88.1979 92.8693 88.0059 93.0907 87.8619 93.352C87.7233 93.6133 87.6219 93.8933 87.5579 94.192C87.4993 94.4853 87.4699 94.7787 87.4699 95.072C87.4699 95.3813 87.5046 95.688 87.5739 95.992C87.6486 96.296 87.7633 96.5707 87.9179 96.816C88.0779 97.056 88.2833 97.2507 88.5339 97.4C88.7846 97.544 89.0886 97.616 89.4459 97.616C89.5953 97.616 89.7633 97.5947 89.9499 97.552C90.1366 97.504 90.2966 97.4533 90.4299 97.4C90.5899 97.336 90.7366 97.248 90.8699 97.136C91.0086 97.024 91.1339 96.9013 91.2459 96.768C91.2779 96.7307 91.3099 96.6933 91.3419 96.656C91.3739 96.6133 91.4006 96.5707 91.4219 96.528C91.4326 96.5067 91.4433 96.488 91.4539 96.472C91.4646 96.4507 91.4779 96.432 91.4939 96.416C91.5259 96.384 91.5713 96.368 91.6299 96.368C91.6619 96.368 91.6939 96.3787 91.7259 96.4C91.7579 96.416 91.7739 96.4427 91.7739 96.48ZM97.0108 95.024C97.0108 94.7307 96.9788 94.4293 96.9148 94.12C96.8508 93.8107 96.7468 93.5253 96.6028 93.264C96.4588 92.9973 96.2668 92.7813 96.0268 92.616C95.7868 92.4507 95.4908 92.368 95.1388 92.368C94.7921 92.368 94.4988 92.4533 94.2588 92.624C94.0188 92.7947 93.8241 93.016 93.6748 93.288C93.5308 93.56 93.4268 93.8533 93.3628 94.168C93.2988 94.4773 93.2668 94.776 93.2668 95.064C93.2668 95.3627 93.2961 95.6693 93.3548 95.984C93.4135 96.2987 93.5121 96.5893 93.6508 96.856C93.7948 97.1227 93.9868 97.3387 94.2268 97.504C94.4721 97.6693 94.7761 97.752 95.1388 97.752C95.5068 97.752 95.8108 97.6693 96.0508 97.504C96.2908 97.3333 96.4801 97.112 96.6188 96.84C96.7628 96.568 96.8641 96.272 96.9228 95.952C96.9815 95.632 97.0108 95.3227 97.0108 95.024ZM97.9948 94.984C97.9948 95.576 97.8855 96.1013 97.6668 96.56C97.4481 97.0187 97.1255 97.3787 96.6988 97.64C96.2775 97.9013 95.7575 98.032 95.1388 98.032C94.5415 98.032 94.0295 97.9067 93.6028 97.656C93.1761 97.4053 92.8481 97.056 92.6188 96.608C92.3948 96.16 92.2828 95.6427 92.2828 95.056C92.2828 94.64 92.3495 94.2533 92.4828 93.896C92.6215 93.5333 92.8161 93.216 93.0668 92.944C93.3228 92.6667 93.6241 92.4507 93.9708 92.296C94.3228 92.1413 94.7121 92.064 95.1388 92.064C95.7361 92.064 96.2481 92.1867 96.6748 92.432C97.1015 92.672 97.4268 93.0107 97.6508 93.448C97.8801 93.8853 97.9948 94.3973 97.9948 94.984ZM102.325 93.56C102.325 93.2133 102.264 92.9547 102.141 92.784C102.019 92.608 101.845 92.4907 101.621 92.432C101.403 92.3733 101.141 92.344 100.837 92.344C100.784 92.344 100.712 92.3467 100.621 92.352C100.536 92.352 100.456 92.368 100.381 92.4C100.312 92.4267 100.277 92.48 100.277 92.56C100.277 92.9173 100.275 93.2747 100.269 93.632C100.269 93.984 100.269 94.3413 100.269 94.704V94.76C100.328 94.776 100.389 94.7867 100.453 94.792C100.517 94.792 100.579 94.792 100.637 94.792C100.92 94.792 101.189 94.76 101.445 94.696C101.701 94.6267 101.912 94.504 102.077 94.328C102.243 94.152 102.325 93.896 102.325 93.56ZM104.181 97.88C104.181 97.9227 104.141 97.9573 104.061 97.984C103.987 98.0053 103.893 98.0187 103.781 98.024C103.675 98.0347 103.573 98.04 103.477 98.04C103.381 98.04 103.317 98.04 103.285 98.04C103.061 98.04 102.88 98.016 102.741 97.968C102.603 97.92 102.472 97.7973 102.349 97.6C102.088 97.1787 101.837 96.752 101.597 96.32C101.357 95.8827 101.117 95.4453 100.877 95.008L100.277 95.032C100.277 95.4533 100.277 95.8773 100.277 96.304C100.277 96.7253 100.277 97.1467 100.277 97.568C100.277 97.6373 100.301 97.6853 100.349 97.712C100.403 97.7387 100.459 97.752 100.517 97.752C100.592 97.752 100.664 97.7493 100.733 97.744C100.808 97.7387 100.88 97.736 100.949 97.736C100.987 97.736 101.016 97.7547 101.037 97.792C101.059 97.824 101.069 97.856 101.069 97.888C101.069 97.9413 101.051 97.976 101.013 97.992C100.976 98.0027 100.936 98.008 100.893 98.008C100.653 98.008 100.413 98.0053 100.173 98C99.9386 97.9947 99.7013 97.992 99.4613 97.992C99.3386 97.992 99.2133 97.9947 99.0853 98C98.9626 98.0107 98.8373 98.016 98.7093 98.016C98.6773 98.016 98.648 98 98.6213 97.968C98.5946 97.936 98.5813 97.904 98.5813 97.872C98.5813 97.792 98.6293 97.752 98.7253 97.752C98.7733 97.752 98.8186 97.7547 98.8613 97.76C98.9093 97.76 98.9546 97.76 98.9973 97.76C99.072 97.76 99.1493 97.752 99.2293 97.736C99.3093 97.7147 99.3546 97.6587 99.3653 97.568C99.376 97.4293 99.3786 97.272 99.3733 97.096C99.3733 96.92 99.3733 96.76 99.3733 96.616C99.3733 96.44 99.3733 96.264 99.3733 96.088C99.3733 95.9067 99.3733 95.728 99.3733 95.552C99.3733 95.1893 99.3733 94.8267 99.3733 94.464C99.3733 94.1013 99.3733 93.7413 99.3733 93.384C99.3733 93.2453 99.3733 93.1067 99.3733 92.968C99.3786 92.8293 99.376 92.6933 99.3653 92.56C99.36 92.4693 99.3226 92.416 99.2533 92.4C99.184 92.384 99.112 92.376 99.0373 92.376C99 92.376 98.9573 92.3787 98.9093 92.384C98.8666 92.384 98.824 92.384 98.7813 92.384C98.6693 92.384 98.6133 92.3307 98.6133 92.224C98.6133 92.1813 98.6266 92.1547 98.6533 92.144C98.68 92.128 98.712 92.12 98.7493 92.12C98.9306 92.12 99.1093 92.128 99.2853 92.144C99.4666 92.1547 99.648 92.16 99.8293 92.16C100.08 92.16 100.328 92.1493 100.573 92.128C100.819 92.1067 101.064 92.096 101.309 92.096C101.517 92.096 101.736 92.1173 101.965 92.16C102.2 92.1973 102.419 92.2667 102.621 92.368C102.824 92.464 102.989 92.5973 103.117 92.768C103.245 92.9387 103.309 93.152 103.309 93.408C103.309 93.7333 103.219 94.0107 103.037 94.24C102.856 94.4693 102.624 94.648 102.341 94.776C102.245 94.824 102.144 94.8613 102.037 94.888C101.936 94.9093 101.832 94.9307 101.725 94.952C101.976 95.368 102.232 95.7813 102.493 96.192C102.755 96.5973 103.024 96.9973 103.301 97.392C103.376 97.4933 103.459 97.5787 103.549 97.648C103.64 97.7173 103.749 97.7653 103.877 97.792C103.904 97.7973 103.941 97.8 103.989 97.8C104.037 97.7947 104.08 97.7973 104.117 97.808C104.16 97.8187 104.181 97.8427 104.181 97.88ZM106.758 95.68H104.654V95.176H106.758V95.68Z" fill="#C2BBBB"/>
<path d="M63.3055 83.568C62.3028 82.928 61.3215 82.0853 60.3615 81.04C59.4228 79.9733 58.5802 78.8427 57.8335 77.648C57.0868 76.432 56.5002 75.28 56.0735 74.192C55.5402 74.9173 55.0815 75.7387 54.6975 76.656C54.3348 77.552 54.1535 78.4587 54.1535 79.376C54.1535 80.3147 54.3348 81.2 54.6975 82.032C55.0602 82.864 55.5935 83.536 56.2975 84.048C57.0015 84.56 57.8548 84.816 58.8575 84.816C59.6895 84.816 60.4682 84.7413 61.1935 84.592C61.9188 84.4213 62.6228 84.08 63.3055 83.568ZM61.5455 65.584C61.5455 65.328 61.4708 65.04 61.3215 64.72C61.1935 64.4 61.0122 64.1227 60.7775 63.888C60.5642 63.6533 60.3188 63.536 60.0415 63.536C59.4228 63.536 58.9002 63.728 58.4735 64.112C58.0682 64.4747 57.7695 64.9333 57.5775 65.488C57.3855 66.0213 57.2895 66.5653 57.2895 67.12C57.2895 67.76 57.3642 68.4 57.5135 69.04C57.6842 69.68 57.9082 70.2987 58.1855 70.896C58.6762 70.4693 59.1775 69.9787 59.6895 69.424C60.2015 68.848 60.6388 68.24 61.0015 67.6C61.3642 66.9387 61.5455 66.2667 61.5455 65.584ZM73.2575 84.528C73.1935 84.976 72.9802 85.3493 72.6175 85.648C72.2548 85.9253 71.8388 86.128 71.3695 86.256C70.9002 86.384 70.4628 86.448 70.0575 86.448C69.0762 86.448 68.0842 86.2667 67.0815 85.904C66.0788 85.52 65.2042 84.9973 64.4575 84.336C63.4122 85.0613 62.3242 85.5733 61.1935 85.872C60.0628 86.1493 58.8575 86.288 57.5775 86.288C56.3828 86.288 55.2522 86.064 54.1855 85.616C53.1402 85.1467 52.2868 84.4747 51.6255 83.6C50.9642 82.7253 50.6335 81.6373 50.6335 80.336C50.6335 79.2907 50.8468 78.3093 51.2735 77.392C51.7215 76.4533 52.2975 75.6 53.0015 74.832C53.7268 74.0427 54.4948 73.36 55.3055 72.784C55.0068 72.08 54.7615 71.3547 54.5695 70.608C54.3775 69.84 54.2815 69.0613 54.2815 68.272C54.2815 67.632 54.3882 67.0133 54.6015 66.416C54.8362 65.7973 55.1562 65.2427 55.5615 64.752C56.1802 63.984 56.9375 63.4187 57.8335 63.056C58.7508 62.6933 59.6895 62.512 60.6495 62.512C61.3322 62.512 61.9828 62.6507 62.6015 62.928C63.2415 63.2053 63.7642 63.6 64.1695 64.112C64.5748 64.624 64.7775 65.2533 64.7775 66C64.7775 66.8107 64.5642 67.5147 64.1375 68.112C63.7108 68.7093 63.1668 69.2427 62.5055 69.712C61.8655 70.16 61.1935 70.5867 60.4895 70.992C59.8068 71.376 59.2095 71.7813 58.6975 72.208C59.1455 73.2747 59.6895 74.384 60.3295 75.536C60.9908 76.688 61.7162 77.7867 62.5055 78.832C63.3162 79.8773 64.1482 80.8053 65.0015 81.616C65.4282 80.912 65.7055 80.1653 65.8335 79.376C65.9615 78.5653 66.0255 77.7653 66.0255 76.976C66.0255 76.72 65.9722 76.3467 65.8655 75.856C65.7588 75.3653 65.5882 74.9173 65.3535 74.512C65.1402 74.1067 64.8735 73.904 64.5535 73.904C64.4682 73.904 64.3828 73.9147 64.2975 73.936C64.2122 73.936 64.1162 73.936 64.0095 73.936C63.9028 73.936 63.8388 73.904 63.8175 73.84C63.8175 73.7547 63.8175 73.6693 63.8175 73.584C63.8175 73.392 63.8388 73.2107 63.8815 73.04C63.9455 72.848 64.1055 72.752 64.3615 72.752C65.0228 72.752 65.6948 72.7307 66.3775 72.688C67.0602 72.624 67.7322 72.5173 68.3935 72.368C68.6495 72.2827 68.9055 72.1867 69.1615 72.08C69.4175 71.9733 69.6522 71.8347 69.8655 71.664C69.9935 71.5573 70.1855 71.3653 70.4415 71.088C70.6975 70.7893 70.9535 70.512 71.2095 70.256C71.4655 70 71.6362 69.872 71.7215 69.872C72.0842 69.872 72.2655 70.0427 72.2655 70.384C72.2655 70.448 72.1908 70.6613 72.0415 71.024C71.9135 71.3867 71.7642 71.7493 71.5935 72.112C71.4442 72.4747 71.3375 72.7093 71.2735 72.816C71.1882 72.9653 71.1135 73.0827 71.0495 73.168C71.0068 73.2533 70.9002 73.3173 70.7295 73.36C70.6228 73.3813 70.4628 73.392 70.2495 73.392C70.0362 73.3707 69.8655 73.36 69.7375 73.36C69.0762 73.36 68.4148 73.392 67.7535 73.456C67.0922 73.52 66.4202 73.5733 65.7375 73.616C66.1855 73.7227 66.6442 73.936 67.1135 74.256C67.6042 74.576 68.0095 74.96 68.3295 75.408C68.6708 75.856 68.8415 76.336 68.8415 76.848C68.8415 78.0213 68.6602 79.1093 68.2975 80.112C67.9562 81.1147 67.3268 82.0213 66.4095 82.832C67.0708 83.3867 67.8708 83.888 68.8095 84.336C69.7482 84.7627 70.6442 84.976 71.4975 84.976C71.7962 84.976 72.0948 84.9333 72.3935 84.848C72.6922 84.7413 72.9802 84.6347 73.2575 84.528Z" fill="#D4A538"/>
</svg>
